<svg xmlns="http://www.w3.org/2000/svg" xml:space="preserve" xmlns:xlink="http://www.w3.org/1999/xlink" style="max-width: 100%;height: auto;" width="1005.3333333333" height="1047.2222222222" viewBox="0 0 1005.3333333333 1047.2222222222">
<defs><mask id="qrmask"><g fill="#ffffff"><g>
<g transform="translate(294.66666666667,38.666666666667) scale(5.4933333333333)"><rect width="6" height="6"/></g>
<g transform="translate(326.66666666667,38.666666666667) scale(5.4933333333333)"><rect width="6" height="6"/></g>
<g transform="translate(390.66666666667,38.666666666667) scale(5.4933333333333)"><rect width="6" height="6"/></g>
<g transform="translate(422.66666666667,38.666666666667) scale(5.4933333333333)"><rect width="6" height="6"/></g>
<g transform="translate(486.66666666667,38.666666666667) scale(5.4933333333333)"><rect width="6" height="6"/></g>
<g transform="translate(582.66666666667,38.666666666667) scale(5.4933333333333)"><rect width="6" height="6"/></g>
<g transform="translate(614.66666666667,38.666666666667) scale(5.4933333333333)"><rect width="6" height="6"/></g>
<g transform="translate(294.66666666667,70.666666666667) scale(5.4933333333333)"><rect width="6" height="6"/></g>
<g transform="translate(326.66666666667,70.666666666667) scale(5.4933333333333)"><rect width="6" height="6"/></g>
<g transform="translate(358.66666666667,70.666666666667) scale(5.4933333333333)"><rect width="6" height="6"/></g>
<g transform="translate(390.66666666667,70.666666666667) scale(5.4933333333333)"><rect width="6" height="6"/></g>
<g transform="translate(422.66666666667,70.666666666667) scale(5.4933333333333)"><rect width="6" height="6"/></g>
<g transform="translate(486.66666666667,70.666666666667) scale(5.4933333333333)"><rect width="6" height="6"/></g>
<g transform="translate(582.66666666667,70.666666666667) scale(5.4933333333333)"><rect width="6" height="6"/></g>
<g transform="translate(678.66666666667,70.666666666667) scale(5.4933333333333)"><rect width="6" height="6"/></g>
<g transform="translate(294.66666666667,102.66666666667) scale(5.4933333333333)"><rect width="6" height="6"/></g>
<g transform="translate(454.66666666667,102.66666666667) scale(5.4933333333333)"><rect width="6" height="6"/></g>
<g transform="translate(486.66666666667,102.66666666667) scale(5.4933333333333)"><rect width="6" height="6"/></g>
<g transform="translate(614.66666666667,102.66666666667) scale(5.4933333333333)"><rect width="6" height="6"/></g>
<g transform="translate(358.66666666667,134.66666666667) scale(5.4933333333333)"><rect width="6" height="6"/></g>
<g transform="translate(454.66666666667,134.66666666667) scale(5.4933333333333)"><rect width="6" height="6"/></g>
<g transform="translate(518.66666666667,134.66666666667) scale(5.4933333333333)"><rect width="6" height="6"/></g>
<g transform="translate(550.66666666667,134.66666666667) scale(5.4933333333333)"><rect width="6" height="6"/></g>
<g transform="translate(582.66666666667,134.66666666667) scale(5.4933333333333)"><rect width="6" height="6"/></g>
<g transform="translate(326.66666666667,166.66666666667) scale(5.4933333333333)"><rect width="6" height="6"/></g>
<g transform="translate(358.66666666667,166.66666666667) scale(5.4933333333333)"><rect width="6" height="6"/></g>
<g transform="translate(390.66666666667,166.66666666667) scale(5.4933333333333)"><rect width="6" height="6"/></g>
<g transform="translate(454.66666666667,166.66666666667) scale(5.4933333333333)"><rect width="6" height="6"/></g>
<g transform="translate(486.66666666667,166.66666666667) scale(5.4933333333333)"><rect width="6" height="6"/></g>
<g transform="translate(582.66666666667,166.66666666667) scale(5.4933333333333)"><rect width="6" height="6"/></g>
<g transform="translate(614.66666666667,166.66666666667) scale(5.4933333333333)"><rect width="6" height="6"/></g>
<g transform="translate(646.66666666667,166.66666666667) scale(5.4933333333333)"><rect width="6" height="6"/></g>
<g transform="translate(294.66666666667,198.66666666667) scale(5.4933333333333)"><rect width="6" height="6"/></g>
<g transform="translate(326.66666666667,198.66666666667) scale(5.4933333333333)"><rect width="6" height="6"/></g>
<g transform="translate(358.66666666667,198.66666666667) scale(5.4933333333333)"><rect width="6" height="6"/></g>
<g transform="translate(454.66666666667,198.66666666667) scale(5.4933333333333)"><rect width="6" height="6"/></g>
<g transform="translate(486.66666666667,198.66666666667) scale(5.4933333333333)"><rect width="6" height="6"/></g>
<g transform="translate(550.66666666667,198.66666666667) scale(5.4933333333333)"><rect width="6" height="6"/></g>
<g transform="translate(582.66666666667,198.66666666667) scale(5.4933333333333)"><rect width="6" height="6"/></g>
<g transform="translate(294.66666666667,230.66666666667) scale(5.4933333333333)"><rect width="6" height="6"/></g>
<g transform="translate(358.66666666667,230.66666666667) scale(5.4933333333333)"><rect width="6" height="6"/></g>
<g transform="translate(422.66666666667,230.66666666667) scale(5.4933333333333)"><rect width="6" height="6"/></g>
<g transform="translate(486.66666666667,230.66666666667) scale(5.4933333333333)"><rect width="6" height="6"/></g>
<g transform="translate(550.66666666667,230.66666666667) scale(5.4933333333333)"><rect width="6" height="6"/></g>
<g transform="translate(614.66666666667,230.66666666667) scale(5.4933333333333)"><rect width="6" height="6"/></g>
<g transform="translate(678.66666666667,230.66666666667) scale(5.4933333333333)"><rect width="6" height="6"/></g>
<g transform="translate(294.66666666667,262.66666666667) scale(5.4933333333333)"><rect width="6" height="6"/></g>
<g transform="translate(326.66666666667,262.66666666667) scale(5.4933333333333)"><rect width="6" height="6"/></g>
<g transform="translate(358.66666666667,262.66666666667) scale(5.4933333333333)"><rect width="6" height="6"/></g>
<g transform="translate(550.66666666667,262.66666666667) scale(5.4933333333333)"><rect width="6" height="6"/></g>
<g transform="translate(582.66666666667,262.66666666667) scale(5.4933333333333)"><rect width="6" height="6"/></g>
<g transform="translate(614.66666666667,262.66666666667) scale(5.4933333333333)"><rect width="6" height="6"/></g>
<g transform="translate(646.66666666667,262.66666666667) scale(5.4933333333333)"><rect width="6" height="6"/></g>
<g transform="translate(102.66666666667,294.66666666667) scale(5.4933333333333)"><rect width="6" height="6"/></g>
<g transform="translate(134.66666666667,294.66666666667) scale(5.4933333333333)"><rect width="6" height="6"/></g>
<g transform="translate(166.66666666667,294.66666666667) scale(5.4933333333333)"><rect width="6" height="6"/></g>
<g transform="translate(230.66666666667,294.66666666667) scale(5.4933333333333)"><rect width="6" height="6"/></g>
<g transform="translate(294.66666666667,294.66666666667) scale(5.4933333333333)"><rect width="6" height="6"/></g>
<g transform="translate(326.66666666667,294.66666666667) scale(5.4933333333333)"><rect width="6" height="6"/></g>
<g transform="translate(390.66666666667,294.66666666667) scale(5.4933333333333)"><rect width="6" height="6"/></g>
<g transform="translate(422.66666666667,294.66666666667) scale(5.4933333333333)"><rect width="6" height="6"/></g>
<g transform="translate(710.66666666667,294.66666666667) scale(5.4933333333333)"><rect width="6" height="6"/></g>
<g transform="translate(742.66666666667,294.66666666667) scale(5.4933333333333)"><rect width="6" height="6"/></g>
<g transform="translate(774.66666666667,294.66666666667) scale(5.4933333333333)"><rect width="6" height="6"/></g>
<g transform="translate(870.66666666667,294.66666666667) scale(5.4933333333333)"><rect width="6" height="6"/></g>
<g transform="translate(902.66666666667,294.66666666667) scale(5.4933333333333)"><rect width="6" height="6"/></g>
<g transform="translate(934.66666666667,294.66666666667) scale(5.4933333333333)"><rect width="6" height="6"/></g>
<g transform="translate(38.666666666667,326.66666666667) scale(5.4933333333333)"><rect width="6" height="6"/></g>
<g transform="translate(70.666666666667,326.66666666667) scale(5.4933333333333)"><rect width="6" height="6"/></g>
<g transform="translate(102.66666666667,326.66666666667) scale(5.4933333333333)"><rect width="6" height="6"/></g>
<g transform="translate(198.66666666667,326.66666666667) scale(5.4933333333333)"><rect width="6" height="6"/></g>
<g transform="translate(262.66666666667,326.66666666667) scale(5.4933333333333)"><rect width="6" height="6"/></g>
<g transform="translate(358.66666666667,326.66666666667) scale(5.4933333333333)"><rect width="6" height="6"/></g>
<g transform="translate(390.66666666667,326.66666666667) scale(5.4933333333333)"><rect width="6" height="6"/></g>
<g transform="translate(614.66666666667,326.66666666667) scale(5.4933333333333)"><rect width="6" height="6"/></g>
<g transform="translate(678.66666666667,326.66666666667) scale(5.4933333333333)"><rect width="6" height="6"/></g>
<g transform="translate(710.66666666667,326.66666666667) scale(5.4933333333333)"><rect width="6" height="6"/></g>
<g transform="translate(774.66666666667,326.66666666667) scale(5.4933333333333)"><rect width="6" height="6"/></g>
<g transform="translate(806.66666666667,326.66666666667) scale(5.4933333333333)"><rect width="6" height="6"/></g>
<g transform="translate(838.66666666667,326.66666666667) scale(5.4933333333333)"><rect width="6" height="6"/></g>
<g transform="translate(934.66666666667,326.66666666667) scale(5.4933333333333)"><rect width="6" height="6"/></g>
<g transform="translate(38.666666666667,358.66666666667) scale(5.4933333333333)"><rect width="6" height="6"/></g>
<g transform="translate(70.666666666667,358.66666666667) scale(5.4933333333333)"><rect width="6" height="6"/></g>
<g transform="translate(102.66666666667,358.66666666667) scale(5.4933333333333)"><rect width="6" height="6"/></g>
<g transform="translate(134.66666666667,358.66666666667) scale(5.4933333333333)"><rect width="6" height="6"/></g>
<g transform="translate(198.66666666667,358.66666666667) scale(5.4933333333333)"><rect width="6" height="6"/></g>
<g transform="translate(230.66666666667,358.66666666667) scale(5.4933333333333)"><rect width="6" height="6"/></g>
<g transform="translate(262.66666666667,358.66666666667) scale(5.4933333333333)"><rect width="6" height="6"/></g>
<g transform="translate(326.66666666667,358.66666666667) scale(5.4933333333333)"><rect width="6" height="6"/></g>
<g transform="translate(358.66666666667,358.66666666667) scale(5.4933333333333)"><rect width="6" height="6"/></g>
<g transform="translate(390.66666666667,358.66666666667) scale(5.4933333333333)"><rect width="6" height="6"/></g>
<g transform="translate(422.66666666667,358.66666666667) scale(5.4933333333333)"><rect width="6" height="6"/></g>
<g transform="translate(550.66666666667,358.66666666667) scale(5.4933333333333)"><rect width="6" height="6"/></g>
<g transform="translate(582.66666666667,358.66666666667) scale(5.4933333333333)"><rect width="6" height="6"/></g>
<g transform="translate(614.66666666667,358.66666666667) scale(5.4933333333333)"><rect width="6" height="6"/></g>
<g transform="translate(678.66666666667,358.66666666667) scale(5.4933333333333)"><rect width="6" height="6"/></g>
<g transform="translate(710.66666666667,358.66666666667) scale(5.4933333333333)"><rect width="6" height="6"/></g>
<g transform="translate(742.66666666667,358.66666666667) scale(5.4933333333333)"><rect width="6" height="6"/></g>
<g transform="translate(806.66666666667,358.66666666667) scale(5.4933333333333)"><rect width="6" height="6"/></g>
<g transform="translate(102.66666666667,390.66666666667) scale(5.4933333333333)"><rect width="6" height="6"/></g>
<g transform="translate(166.66666666667,390.66666666667) scale(5.4933333333333)"><rect width="6" height="6"/></g>
<g transform="translate(262.66666666667,390.66666666667) scale(5.4933333333333)"><rect width="6" height="6"/></g>
<g transform="translate(326.66666666667,390.66666666667) scale(5.4933333333333)"><rect width="6" height="6"/></g>
<g transform="translate(358.66666666667,390.66666666667) scale(5.4933333333333)"><rect width="6" height="6"/></g>
<g transform="translate(390.66666666667,390.66666666667) scale(5.4933333333333)"><rect width="6" height="6"/></g>
<g transform="translate(422.66666666667,390.66666666667) scale(5.4933333333333)"><rect width="6" height="6"/></g>
<g transform="translate(454.66666666667,390.66666666667) scale(5.4933333333333)"><rect width="6" height="6"/></g>
<g transform="translate(518.66666666667,390.66666666667) scale(5.4933333333333)"><rect width="6" height="6"/></g>
<g transform="translate(582.66666666667,390.66666666667) scale(5.4933333333333)"><rect width="6" height="6"/></g>
<g transform="translate(614.66666666667,390.66666666667) scale(5.4933333333333)"><rect width="6" height="6"/></g>
<g transform="translate(646.66666666667,390.66666666667) scale(5.4933333333333)"><rect width="6" height="6"/></g>
<g transform="translate(710.66666666667,390.66666666667) scale(5.4933333333333)"><rect width="6" height="6"/></g>
<g transform="translate(742.66666666667,390.66666666667) scale(5.4933333333333)"><rect width="6" height="6"/></g>
<g transform="translate(774.66666666667,390.66666666667) scale(5.4933333333333)"><rect width="6" height="6"/></g>
<g transform="translate(806.66666666667,390.66666666667) scale(5.4933333333333)"><rect width="6" height="6"/></g>
<g transform="translate(838.66666666667,390.66666666667) scale(5.4933333333333)"><rect width="6" height="6"/></g>
<g transform="translate(902.66666666667,390.66666666667) scale(5.4933333333333)"><rect width="6" height="6"/></g>
<g transform="translate(70.666666666667,422.66666666667) scale(5.4933333333333)"><rect width="6" height="6"/></g>
<g transform="translate(134.66666666667,422.66666666667) scale(5.4933333333333)"><rect width="6" height="6"/></g>
<g transform="translate(166.66666666667,422.66666666667) scale(5.4933333333333)"><rect width="6" height="6"/></g>
<g transform="translate(198.66666666667,422.66666666667) scale(5.4933333333333)"><rect width="6" height="6"/></g>
<g transform="translate(230.66666666667,422.66666666667) scale(5.4933333333333)"><rect width="6" height="6"/></g>
<g transform="translate(390.66666666667,422.66666666667) scale(5.4933333333333)"><rect width="6" height="6"/></g>
<g transform="translate(486.66666666667,422.66666666667) scale(5.4933333333333)"><rect width="6" height="6"/></g>
<g transform="translate(518.66666666667,422.66666666667) scale(5.4933333333333)"><rect width="6" height="6"/></g>
<g transform="translate(614.66666666667,422.66666666667) scale(5.4933333333333)"><rect width="6" height="6"/></g>
<g transform="translate(678.66666666667,422.66666666667) scale(5.4933333333333)"><rect width="6" height="6"/></g>
<g transform="translate(710.66666666667,422.66666666667) scale(5.4933333333333)"><rect width="6" height="6"/></g>
<g transform="translate(774.66666666667,422.66666666667) scale(5.4933333333333)"><rect width="6" height="6"/></g>
<g transform="translate(870.66666666667,422.66666666667) scale(5.4933333333333)"><rect width="6" height="6"/></g>
<g transform="translate(902.66666666667,422.66666666667) scale(5.4933333333333)"><rect width="6" height="6"/></g>
<g transform="translate(934.66666666667,422.66666666667) scale(5.4933333333333)"><rect width="6" height="6"/></g>
<g transform="translate(38.666666666667,454.66666666667) scale(5.4933333333333)"><rect width="6" height="6"/></g>
<g transform="translate(70.666666666667,454.66666666667) scale(5.4933333333333)"><rect width="6" height="6"/></g>
<g transform="translate(102.66666666667,454.66666666667) scale(5.4933333333333)"><rect width="6" height="6"/></g>
<g transform="translate(134.66666666667,454.66666666667) scale(5.4933333333333)"><rect width="6" height="6"/></g>
<g transform="translate(166.66666666667,454.66666666667) scale(5.4933333333333)"><rect width="6" height="6"/></g>
<g transform="translate(198.66666666667,454.66666666667) scale(5.4933333333333)"><rect width="6" height="6"/></g>
<g transform="translate(262.66666666667,454.66666666667) scale(5.4933333333333)"><rect width="6" height="6"/></g>
<g transform="translate(326.66666666667,454.66666666667) scale(5.4933333333333)"><rect width="6" height="6"/></g>
<g transform="translate(358.66666666667,454.66666666667) scale(5.4933333333333)"><rect width="6" height="6"/></g>
<g transform="translate(486.66666666667,454.66666666667) scale(5.4933333333333)"><rect width="6" height="6"/></g>
<g transform="translate(518.66666666667,454.66666666667) scale(5.4933333333333)"><rect width="6" height="6"/></g>
<g transform="translate(582.66666666667,454.66666666667) scale(5.4933333333333)"><rect width="6" height="6"/></g>
<g transform="translate(614.66666666667,454.66666666667) scale(5.4933333333333)"><rect width="6" height="6"/></g>
<g transform="translate(646.66666666667,454.66666666667) scale(5.4933333333333)"><rect width="6" height="6"/></g>
<g transform="translate(678.66666666667,454.66666666667) scale(5.4933333333333)"><rect width="6" height="6"/></g>
<g transform="translate(710.66666666667,454.66666666667) scale(5.4933333333333)"><rect width="6" height="6"/></g>
<g transform="translate(742.66666666667,454.66666666667) scale(5.4933333333333)"><rect width="6" height="6"/></g>
<g transform="translate(806.66666666667,454.66666666667) scale(5.4933333333333)"><rect width="6" height="6"/></g>
<g transform="translate(838.66666666667,454.66666666667) scale(5.4933333333333)"><rect width="6" height="6"/></g>
<g transform="translate(902.66666666667,454.66666666667) scale(5.4933333333333)"><rect width="6" height="6"/></g>
<g transform="translate(934.66666666667,454.66666666667) scale(5.4933333333333)"><rect width="6" height="6"/></g>
<g transform="translate(38.666666666667,486.66666666667) scale(5.4933333333333)"><rect width="6" height="6"/></g>
<g transform="translate(70.666666666667,486.66666666667) scale(5.4933333333333)"><rect width="6" height="6"/></g>
<g transform="translate(230.66666666667,486.66666666667) scale(5.4933333333333)"><rect width="6" height="6"/></g>
<g transform="translate(262.66666666667,486.66666666667) scale(5.4933333333333)"><rect width="6" height="6"/></g>
<g transform="translate(326.66666666667,486.66666666667) scale(5.4933333333333)"><rect width="6" height="6"/></g>
<g transform="translate(358.66666666667,486.66666666667) scale(5.4933333333333)"><rect width="6" height="6"/></g>
<g transform="translate(390.66666666667,486.66666666667) scale(5.4933333333333)"><rect width="6" height="6"/></g>
<g transform="translate(422.66666666667,486.66666666667) scale(5.4933333333333)"><rect width="6" height="6"/></g>
<g transform="translate(486.66666666667,486.66666666667) scale(5.4933333333333)"><rect width="6" height="6"/></g>
<g transform="translate(550.66666666667,486.66666666667) scale(5.4933333333333)"><rect width="6" height="6"/></g>
<g transform="translate(582.66666666667,486.66666666667) scale(5.4933333333333)"><rect width="6" height="6"/></g>
<g transform="translate(614.66666666667,486.66666666667) scale(5.4933333333333)"><rect width="6" height="6"/></g>
<g transform="translate(678.66666666667,486.66666666667) scale(5.4933333333333)"><rect width="6" height="6"/></g>
<g transform="translate(710.66666666667,486.66666666667) scale(5.4933333333333)"><rect width="6" height="6"/></g>
<g transform="translate(742.66666666667,486.66666666667) scale(5.4933333333333)"><rect width="6" height="6"/></g>
<g transform="translate(774.66666666667,486.66666666667) scale(5.4933333333333)"><rect width="6" height="6"/></g>
<g transform="translate(70.666666666667,518.66666666667) scale(5.4933333333333)"><rect width="6" height="6"/></g>
<g transform="translate(102.66666666667,518.66666666667) scale(5.4933333333333)"><rect width="6" height="6"/></g>
<g transform="translate(198.66666666667,518.66666666667) scale(5.4933333333333)"><rect width="6" height="6"/></g>
<g transform="translate(294.66666666667,518.66666666667) scale(5.4933333333333)"><rect width="6" height="6"/></g>
<g transform="translate(326.66666666667,518.66666666667) scale(5.4933333333333)"><rect width="6" height="6"/></g>
<g transform="translate(454.66666666667,518.66666666667) scale(5.4933333333333)"><rect width="6" height="6"/></g>
<g transform="translate(518.66666666667,518.66666666667) scale(5.4933333333333)"><rect width="6" height="6"/></g>
<g transform="translate(550.66666666667,518.66666666667) scale(5.4933333333333)"><rect width="6" height="6"/></g>
<g transform="translate(582.66666666667,518.66666666667) scale(5.4933333333333)"><rect width="6" height="6"/></g>
<g transform="translate(710.66666666667,518.66666666667) scale(5.4933333333333)"><rect width="6" height="6"/></g>
<g transform="translate(742.66666666667,518.66666666667) scale(5.4933333333333)"><rect width="6" height="6"/></g>
<g transform="translate(806.66666666667,518.66666666667) scale(5.4933333333333)"><rect width="6" height="6"/></g>
<g transform="translate(838.66666666667,518.66666666667) scale(5.4933333333333)"><rect width="6" height="6"/></g>
<g transform="translate(934.66666666667,518.66666666667) scale(5.4933333333333)"><rect width="6" height="6"/></g>
<g transform="translate(38.666666666667,550.66666666667) scale(5.4933333333333)"><rect width="6" height="6"/></g>
<g transform="translate(198.66666666667,550.66666666667) scale(5.4933333333333)"><rect width="6" height="6"/></g>
<g transform="translate(230.66666666667,550.66666666667) scale(5.4933333333333)"><rect width="6" height="6"/></g>
<g transform="translate(326.66666666667,550.66666666667) scale(5.4933333333333)"><rect width="6" height="6"/></g>
<g transform="translate(358.66666666667,550.66666666667) scale(5.4933333333333)"><rect width="6" height="6"/></g>
<g transform="translate(422.66666666667,550.66666666667) scale(5.4933333333333)"><rect width="6" height="6"/></g>
<g transform="translate(486.66666666667,550.66666666667) scale(5.4933333333333)"><rect width="6" height="6"/></g>
<g transform="translate(550.66666666667,550.66666666667) scale(5.4933333333333)"><rect width="6" height="6"/></g>
<g transform="translate(582.66666666667,550.66666666667) scale(5.4933333333333)"><rect width="6" height="6"/></g>
<g transform="translate(678.66666666667,550.66666666667) scale(5.4933333333333)"><rect width="6" height="6"/></g>
<g transform="translate(710.66666666667,550.66666666667) scale(5.4933333333333)"><rect width="6" height="6"/></g>
<g transform="translate(774.66666666667,550.66666666667) scale(5.4933333333333)"><rect width="6" height="6"/></g>
<g transform="translate(806.66666666667,550.66666666667) scale(5.4933333333333)"><rect width="6" height="6"/></g>
<g transform="translate(838.66666666667,550.66666666667) scale(5.4933333333333)"><rect width="6" height="6"/></g>
<g transform="translate(870.66666666667,550.66666666667) scale(5.4933333333333)"><rect width="6" height="6"/></g>
<g transform="translate(934.66666666667,550.66666666667) scale(5.4933333333333)"><rect width="6" height="6"/></g>
<g transform="translate(38.666666666667,582.66666666667) scale(5.4933333333333)"><rect width="6" height="6"/></g>
<g transform="translate(166.66666666667,582.66666666667) scale(5.4933333333333)"><rect width="6" height="6"/></g>
<g transform="translate(358.66666666667,582.66666666667) scale(5.4933333333333)"><rect width="6" height="6"/></g>
<g transform="translate(390.66666666667,582.66666666667) scale(5.4933333333333)"><rect width="6" height="6"/></g>
<g transform="translate(518.66666666667,582.66666666667) scale(5.4933333333333)"><rect width="6" height="6"/></g>
<g transform="translate(582.66666666667,582.66666666667) scale(5.4933333333333)"><rect width="6" height="6"/></g>
<g transform="translate(678.66666666667,582.66666666667) scale(5.4933333333333)"><rect width="6" height="6"/></g>
<g transform="translate(742.66666666667,582.66666666667) scale(5.4933333333333)"><rect width="6" height="6"/></g>
<g transform="translate(774.66666666667,582.66666666667) scale(5.4933333333333)"><rect width="6" height="6"/></g>
<g transform="translate(806.66666666667,582.66666666667) scale(5.4933333333333)"><rect width="6" height="6"/></g>
<g transform="translate(838.66666666667,582.66666666667) scale(5.4933333333333)"><rect width="6" height="6"/></g>
<g transform="translate(902.66666666667,582.66666666667) scale(5.4933333333333)"><rect width="6" height="6"/></g>
<g transform="translate(934.66666666667,582.66666666667) scale(5.4933333333333)"><rect width="6" height="6"/></g>
<g transform="translate(38.666666666667,614.66666666667) scale(5.4933333333333)"><rect width="6" height="6"/></g>
<g transform="translate(102.66666666667,614.66666666667) scale(5.4933333333333)"><rect width="6" height="6"/></g>
<g transform="translate(166.66666666667,614.66666666667) scale(5.4933333333333)"><rect width="6" height="6"/></g>
<g transform="translate(198.66666666667,614.66666666667) scale(5.4933333333333)"><rect width="6" height="6"/></g>
<g transform="translate(230.66666666667,614.66666666667) scale(5.4933333333333)"><rect width="6" height="6"/></g>
<g transform="translate(358.66666666667,614.66666666667) scale(5.4933333333333)"><rect width="6" height="6"/></g>
<g transform="translate(582.66666666667,614.66666666667) scale(5.4933333333333)"><rect width="6" height="6"/></g>
<g transform="translate(678.66666666667,614.66666666667) scale(5.4933333333333)"><rect width="6" height="6"/></g>
<g transform="translate(742.66666666667,614.66666666667) scale(5.4933333333333)"><rect width="6" height="6"/></g>
<g transform="translate(774.66666666667,614.66666666667) scale(5.4933333333333)"><rect width="6" height="6"/></g>
<g transform="translate(838.66666666667,614.66666666667) scale(5.4933333333333)"><rect width="6" height="6"/></g>
<g transform="translate(38.666666666667,646.66666666667) scale(5.4933333333333)"><rect width="6" height="6"/></g>
<g transform="translate(102.66666666667,646.66666666667) scale(5.4933333333333)"><rect width="6" height="6"/></g>
<g transform="translate(166.66666666667,646.66666666667) scale(5.4933333333333)"><rect width="6" height="6"/></g>
<g transform="translate(198.66666666667,646.66666666667) scale(5.4933333333333)"><rect width="6" height="6"/></g>
<g transform="translate(326.66666666667,646.66666666667) scale(5.4933333333333)"><rect width="6" height="6"/></g>
<g transform="translate(390.66666666667,646.66666666667) scale(5.4933333333333)"><rect width="6" height="6"/></g>
<g transform="translate(582.66666666667,646.66666666667) scale(5.4933333333333)"><rect width="6" height="6"/></g>
<g transform="translate(614.66666666667,646.66666666667) scale(5.4933333333333)"><rect width="6" height="6"/></g>
<g transform="translate(646.66666666667,646.66666666667) scale(5.4933333333333)"><rect width="6" height="6"/></g>
<g transform="translate(742.66666666667,646.66666666667) scale(5.4933333333333)"><rect width="6" height="6"/></g>
<g transform="translate(774.66666666667,646.66666666667) scale(5.4933333333333)"><rect width="6" height="6"/></g>
<g transform="translate(838.66666666667,646.66666666667) scale(5.4933333333333)"><rect width="6" height="6"/></g>
<g transform="translate(934.66666666667,646.66666666667) scale(5.4933333333333)"><rect width="6" height="6"/></g>
<g transform="translate(38.666666666667,678.66666666667) scale(5.4933333333333)"><rect width="6" height="6"/></g>
<g transform="translate(102.66666666667,678.66666666667) scale(5.4933333333333)"><rect width="6" height="6"/></g>
<g transform="translate(134.66666666667,678.66666666667) scale(5.4933333333333)"><rect width="6" height="6"/></g>
<g transform="translate(166.66666666667,678.66666666667) scale(5.4933333333333)"><rect width="6" height="6"/></g>
<g transform="translate(198.66666666667,678.66666666667) scale(5.4933333333333)"><rect width="6" height="6"/></g>
<g transform="translate(230.66666666667,678.66666666667) scale(5.4933333333333)"><rect width="6" height="6"/></g>
<g transform="translate(262.66666666667,678.66666666667) scale(5.4933333333333)"><rect width="6" height="6"/></g>
<g transform="translate(358.66666666667,678.66666666667) scale(5.4933333333333)"><rect width="6" height="6"/></g>
<g transform="translate(422.66666666667,678.66666666667) scale(5.4933333333333)"><rect width="6" height="6"/></g>
<g transform="translate(454.66666666667,678.66666666667) scale(5.4933333333333)"><rect width="6" height="6"/></g>
<g transform="translate(518.66666666667,678.66666666667) scale(5.4933333333333)"><rect width="6" height="6"/></g>
<g transform="translate(582.66666666667,678.66666666667) scale(5.4933333333333)"><rect width="6" height="6"/></g>
<g transform="translate(646.66666666667,678.66666666667) scale(5.4933333333333)"><rect width="6" height="6"/></g>
<g transform="translate(678.66666666667,678.66666666667) scale(5.4933333333333)"><rect width="6" height="6"/></g>
<g transform="translate(710.66666666667,678.66666666667) scale(5.4933333333333)"><rect width="6" height="6"/></g>
<g transform="translate(742.66666666667,678.66666666667) scale(5.4933333333333)"><rect width="6" height="6"/></g>
<g transform="translate(774.66666666667,678.66666666667) scale(5.4933333333333)"><rect width="6" height="6"/></g>
<g transform="translate(806.66666666667,678.66666666667) scale(5.4933333333333)"><rect width="6" height="6"/></g>
<g transform="translate(838.66666666667,678.66666666667) scale(5.4933333333333)"><rect width="6" height="6"/></g>
<g transform="translate(870.66666666667,678.66666666667) scale(5.4933333333333)"><rect width="6" height="6"/></g>
<g transform="translate(294.66666666667,710.66666666667) scale(5.4933333333333)"><rect width="6" height="6"/></g>
<g transform="translate(326.66666666667,710.66666666667) scale(5.4933333333333)"><rect width="6" height="6"/></g>
<g transform="translate(390.66666666667,710.66666666667) scale(5.4933333333333)"><rect width="6" height="6"/></g>
<g transform="translate(454.66666666667,710.66666666667) scale(5.4933333333333)"><rect width="6" height="6"/></g>
<g transform="translate(614.66666666667,710.66666666667) scale(5.4933333333333)"><rect width="6" height="6"/></g>
<g transform="translate(646.66666666667,710.66666666667) scale(5.4933333333333)"><rect width="6" height="6"/></g>
<g transform="translate(678.66666666667,710.66666666667) scale(5.4933333333333)"><rect width="6" height="6"/></g>
<g transform="translate(806.66666666667,710.66666666667) scale(5.4933333333333)"><rect width="6" height="6"/></g>
<g transform="translate(838.66666666667,710.66666666667) scale(5.4933333333333)"><rect width="6" height="6"/></g>
<g transform="translate(902.66666666667,710.66666666667) scale(5.4933333333333)"><rect width="6" height="6"/></g>
<g transform="translate(934.66666666667,710.66666666667) scale(5.4933333333333)"><rect width="6" height="6"/></g>
<g transform="translate(326.66666666667,742.66666666667) scale(5.4933333333333)"><rect width="6" height="6"/></g>
<g transform="translate(358.66666666667,742.66666666667) scale(5.4933333333333)"><rect width="6" height="6"/></g>
<g transform="translate(422.66666666667,742.66666666667) scale(5.4933333333333)"><rect width="6" height="6"/></g>
<g transform="translate(518.66666666667,742.66666666667) scale(5.4933333333333)"><rect width="6" height="6"/></g>
<g transform="translate(646.66666666667,742.66666666667) scale(5.4933333333333)"><rect width="6" height="6"/></g>
<g transform="translate(678.66666666667,742.66666666667) scale(5.4933333333333)"><rect width="6" height="6"/></g>
<g transform="translate(742.66666666667,742.66666666667) scale(5.4933333333333)"><rect width="6" height="6"/></g>
<g transform="translate(806.66666666667,742.66666666667) scale(5.4933333333333)"><rect width="6" height="6"/></g>
<g transform="translate(326.66666666667,774.66666666667) scale(5.4933333333333)"><rect width="6" height="6"/></g>
<g transform="translate(390.66666666667,774.66666666667) scale(5.4933333333333)"><rect width="6" height="6"/></g>
<g transform="translate(486.66666666667,774.66666666667) scale(5.4933333333333)"><rect width="6" height="6"/></g>
<g transform="translate(550.66666666667,774.66666666667) scale(5.4933333333333)"><rect width="6" height="6"/></g>
<g transform="translate(582.66666666667,774.66666666667) scale(5.4933333333333)"><rect width="6" height="6"/></g>
<g transform="translate(614.66666666667,774.66666666667) scale(5.4933333333333)"><rect width="6" height="6"/></g>
<g transform="translate(646.66666666667,774.66666666667) scale(5.4933333333333)"><rect width="6" height="6"/></g>
<g transform="translate(678.66666666667,774.66666666667) scale(5.4933333333333)"><rect width="6" height="6"/></g>
<g transform="translate(806.66666666667,774.66666666667) scale(5.4933333333333)"><rect width="6" height="6"/></g>
<g transform="translate(838.66666666667,774.66666666667) scale(5.4933333333333)"><rect width="6" height="6"/></g>
<g transform="translate(934.66666666667,774.66666666667) scale(5.4933333333333)"><rect width="6" height="6"/></g>
<g transform="translate(294.66666666667,806.66666666667) scale(5.4933333333333)"><rect width="6" height="6"/></g>
<g transform="translate(326.66666666667,806.66666666667) scale(5.4933333333333)"><rect width="6" height="6"/></g>
<g transform="translate(454.66666666667,806.66666666667) scale(5.4933333333333)"><rect width="6" height="6"/></g>
<g transform="translate(582.66666666667,806.66666666667) scale(5.4933333333333)"><rect width="6" height="6"/></g>
<g transform="translate(614.66666666667,806.66666666667) scale(5.4933333333333)"><rect width="6" height="6"/></g>
<g transform="translate(678.66666666667,806.66666666667) scale(5.4933333333333)"><rect width="6" height="6"/></g>
<g transform="translate(710.66666666667,806.66666666667) scale(5.4933333333333)"><rect width="6" height="6"/></g>
<g transform="translate(742.66666666667,806.66666666667) scale(5.4933333333333)"><rect width="6" height="6"/></g>
<g transform="translate(774.66666666667,806.66666666667) scale(5.4933333333333)"><rect width="6" height="6"/></g>
<g transform="translate(806.66666666667,806.66666666667) scale(5.4933333333333)"><rect width="6" height="6"/></g>
<g transform="translate(838.66666666667,806.66666666667) scale(5.4933333333333)"><rect width="6" height="6"/></g>
<g transform="translate(870.66666666667,806.66666666667) scale(5.4933333333333)"><rect width="6" height="6"/></g>
<g transform="translate(902.66666666667,806.66666666667) scale(5.4933333333333)"><rect width="6" height="6"/></g>
<g transform="translate(294.66666666667,838.66666666667) scale(5.4933333333333)"><rect width="6" height="6"/></g>
<g transform="translate(358.66666666667,838.66666666667) scale(5.4933333333333)"><rect width="6" height="6"/></g>
<g transform="translate(486.66666666667,838.66666666667) scale(5.4933333333333)"><rect width="6" height="6"/></g>
<g transform="translate(550.66666666667,838.66666666667) scale(5.4933333333333)"><rect width="6" height="6"/></g>
<g transform="translate(646.66666666667,838.66666666667) scale(5.4933333333333)"><rect width="6" height="6"/></g>
<g transform="translate(678.66666666667,838.66666666667) scale(5.4933333333333)"><rect width="6" height="6"/></g>
<g transform="translate(710.66666666667,838.66666666667) scale(5.4933333333333)"><rect width="6" height="6"/></g>
<g transform="translate(774.66666666667,838.66666666667) scale(5.4933333333333)"><rect width="6" height="6"/></g>
<g transform="translate(294.66666666667,870.66666666667) scale(5.4933333333333)"><rect width="6" height="6"/></g>
<g transform="translate(326.66666666667,870.66666666667) scale(5.4933333333333)"><rect width="6" height="6"/></g>
<g transform="translate(358.66666666667,870.66666666667) scale(5.4933333333333)"><rect width="6" height="6"/></g>
<g transform="translate(390.66666666667,870.66666666667) scale(5.4933333333333)"><rect width="6" height="6"/></g>
<g transform="translate(422.66666666667,870.66666666667) scale(5.4933333333333)"><rect width="6" height="6"/></g>
<g transform="translate(454.66666666667,870.66666666667) scale(5.4933333333333)"><rect width="6" height="6"/></g>
<g transform="translate(518.66666666667,870.66666666667) scale(5.4933333333333)"><rect width="6" height="6"/></g>
<g transform="translate(550.66666666667,870.66666666667) scale(5.4933333333333)"><rect width="6" height="6"/></g>
<g transform="translate(614.66666666667,870.66666666667) scale(5.4933333333333)"><rect width="6" height="6"/></g>
<g transform="translate(646.66666666667,870.66666666667) scale(5.4933333333333)"><rect width="6" height="6"/></g>
<g transform="translate(678.66666666667,870.66666666667) scale(5.4933333333333)"><rect width="6" height="6"/></g>
<g transform="translate(710.66666666667,870.66666666667) scale(5.4933333333333)"><rect width="6" height="6"/></g>
<g transform="translate(742.66666666667,870.66666666667) scale(5.4933333333333)"><rect width="6" height="6"/></g>
<g transform="translate(774.66666666667,870.66666666667) scale(5.4933333333333)"><rect width="6" height="6"/></g>
<g transform="translate(806.66666666667,870.66666666667) scale(5.4933333333333)"><rect width="6" height="6"/></g>
<g transform="translate(838.66666666667,870.66666666667) scale(5.4933333333333)"><rect width="6" height="6"/></g>
<g transform="translate(870.66666666667,870.66666666667) scale(5.4933333333333)"><rect width="6" height="6"/></g>
<g transform="translate(902.66666666667,870.66666666667) scale(5.4933333333333)"><rect width="6" height="6"/></g>
<g transform="translate(358.66666666667,902.66666666667) scale(5.4933333333333)"><rect width="6" height="6"/></g>
<g transform="translate(486.66666666667,902.66666666667) scale(5.4933333333333)"><rect width="6" height="6"/></g>
<g transform="translate(550.66666666667,902.66666666667) scale(5.4933333333333)"><rect width="6" height="6"/></g>
<g transform="translate(582.66666666667,902.66666666667) scale(5.4933333333333)"><rect width="6" height="6"/></g>
<g transform="translate(614.66666666667,902.66666666667) scale(5.4933333333333)"><rect width="6" height="6"/></g>
<g transform="translate(678.66666666667,902.66666666667) scale(5.4933333333333)"><rect width="6" height="6"/></g>
<g transform="translate(806.66666666667,902.66666666667) scale(5.4933333333333)"><rect width="6" height="6"/></g>
<g transform="translate(902.66666666667,902.66666666667) scale(5.4933333333333)"><rect width="6" height="6"/></g>
<g transform="translate(326.66666666667,934.66666666667) scale(5.4933333333333)"><rect width="6" height="6"/></g>
<g transform="translate(358.66666666667,934.66666666667) scale(5.4933333333333)"><rect width="6" height="6"/></g>
<g transform="translate(454.66666666667,934.66666666667) scale(5.4933333333333)"><rect width="6" height="6"/></g>
<g transform="translate(486.66666666667,934.66666666667) scale(5.4933333333333)"><rect width="6" height="6"/></g>
<g transform="translate(518.66666666667,934.66666666667) scale(5.4933333333333)"><rect width="6" height="6"/></g>
<g transform="translate(614.66666666667,934.66666666667) scale(5.4933333333333)"><rect width="6" height="6"/></g>
<g transform="translate(646.66666666667,934.66666666667) scale(5.4933333333333)"><rect width="6" height="6"/></g>
<g transform="translate(806.66666666667,934.66666666667) scale(5.4933333333333)"><rect width="6" height="6"/></g>
<g transform="translate(870.66666666667,934.66666666667) scale(5.4933333333333)"><rect width="6" height="6"/></g>
</g></g></mask></defs>
<g fill="#000000" transform="scale(41.888888888889)"></g>
<rect x="0" y="0" width="1005.3333333333" height="1047.2222222222" mask="url(#qrmask)" fill="#000000" />
<g><g transform="translate(38.666666666667,38.666666666667)"  fill="#000000"><g transform="scale(16)"><path d="M4.5,14h5.1C12,14,14,12,14,9.6V4.5C14,2,12,0,9.5,0H4.4C2,0,0,2,0,4.4v5.1C0,12,2,14,4.5,14z M12,4.8v4.4 c0,1.5-1.3,2.8-2.8,2.8H4.8C3.2,12,2,10.8,2,9.2V4.8C2,3.3,3.3,2,4.8,2h4.4C10.8,2,12,3.2,12,4.8z"/></g></g>
<g transform="translate(102.66666666667,102.66666666667)"  fill="#000000"><g transform="scale(16)"><rect width="6" height="6"/></g></g>
<g transform="translate(742.66666666667,38.666666666667)"  fill="#000000"><g transform="scale(16)"><path d="M4.5,14h5.1C12,14,14,12,14,9.6V4.5C14,2,12,0,9.5,0H4.4C2,0,0,2,0,4.4v5.1C0,12,2,14,4.5,14z M12,4.8v4.4 c0,1.5-1.3,2.8-2.8,2.8H4.8C3.2,12,2,10.8,2,9.2V4.8C2,3.3,3.3,2,4.8,2h4.4C10.8,2,12,3.2,12,4.8z"/></g></g>
<g transform="translate(806.66666666667,102.66666666667)"  fill="#000000"><g transform="scale(16)"><rect width="6" height="6"/></g></g>
<g transform="translate(38.666666666667,742.66666666667)"  fill="#000000"><g transform="scale(16)"><path d="M4.5,14h5.1C12,14,14,12,14,9.6V4.5C14,2,12,0,9.5,0H4.4C2,0,0,2,0,4.4v5.1C0,12,2,14,4.5,14z M12,4.8v4.4 c0,1.5-1.3,2.8-2.8,2.8H4.8C3.2,12,2,10.8,2,9.2V4.8C2,3.3,3.3,2,4.8,2h4.4C10.8,2,12,3.2,12,4.8z"/></g></g>
<g transform="translate(102.66666666667,806.66666666667)"  fill="#000000"><g transform="scale(16)"><rect width="6" height="6"/></g></g></g>
<text fill="#FFFFFF" font-family="Arial, Helvetica, sans-serif" font-size="0px" text-anchor="middle" x="525.625" y="41.888888888889">SCAN ME</text></svg>